<?xml version="1.0" encoding="UTF-8" standalone="no"?>
<!DOCTYPE svg PUBLIC "-//W3C//DTD SVG 1.1//EN" "http://www.w3.org/Graphics/SVG/1.1/DTD/svg11.dtd">
<svg width="100%" height="100%" viewBox="0 0 186 157" version="1.1" xmlns="http://www.w3.org/2000/svg" xmlns:xlink="http://www.w3.org/1999/xlink" xml:space="preserve" xmlns:serif="http://www.serif.com/" style="fill-rule:evenodd;clip-rule:evenodd;stroke-linejoin:round;stroke-miterlimit:2;">
    <g transform="matrix(10.19,0,0,10.19,-6.10726,-0.137484)">
        <g id="g71">
            <path id="path69" d="M7.385,0.43C7.242,0.173 6.971,0.013 6.677,0.013C6.383,0.013 6.112,0.173 5.969,0.43L0.677,10.03C0.431,10.523 0.8,11.077 1.354,11.077L4.924,11.077L4.924,14.707C4.924,15.077 5.231,15.385 5.6,15.385L7.692,15.385C8.062,15.385 8.369,15.077 8.369,14.708L8.369,11.077L7.385,11.077C6.987,11.082 6.646,10.793 6.585,10.4C6.585,10.277 6.585,10.154 6.646,10.03L9.6,4.676L7.385,0.43Z" style="fill:rgb(57,224,155);fill-rule:nonzero;"/>
        </g>
    </g>
    <g transform="matrix(10.19,0,0,10.19,-6.18906,-0.137484)">
        <g id="g75">
            <path id="path73" d="M12.062,0.43C12.205,0.173 12.476,0.014 12.769,0.014C13.063,0.014 13.334,0.173 13.477,0.43L18.769,10.03C19.015,10.523 18.646,11.077 18.092,11.077L14.585,11.077L14.585,14.707C14.585,15.077 14.277,15.385 13.907,15.385L11.692,15.385C11.319,15.382 11.018,15.081 11.015,14.708L11.015,11.077L12,11.077C12.398,11.082 12.739,10.793 12.8,10.4C12.8,10.277 12.8,10.154 12.738,10.03L9.785,4.677L12.062,0.43Z" style="fill:rgb(40,191,123);fill-rule:nonzero;"/>
        </g>
    </g>
</svg>
