<?xml version="1.0" encoding="UTF-8" standalone="no"?>
<!DOCTYPE svg PUBLIC "-//W3C//DTD SVG 1.1//EN" "http://www.w3.org/Graphics/SVG/1.1/DTD/svg11.dtd">
<svg width="100%" height="100%" viewBox="0 0 441 388" version="1.1" xmlns="http://www.w3.org/2000/svg" xmlns:xlink="http://www.w3.org/1999/xlink" xml:space="preserve" xmlns:serif="http://www.serif.com/" style="fill-rule:evenodd;clip-rule:evenodd;stroke-linejoin:round;stroke-miterlimit:2;">
    <g transform="matrix(1,0,0,1,-214.237,-218.667)">
        <g transform="matrix(4.16667,0,0,4.16667,0,0)">
            <path d="M51.417,124.25L60.352,139.696L60.355,139.698C62.114,143.182 65.724,145.573 69.894,145.573L129.203,145.573L116.898,124.25L51.417,124.25Z" style="fill:rgb(48,172,227);fill-rule:nonzero;"/>
            <path d="M157.195,124.361C157.195,122.225 156.566,120.238 155.487,118.569L120.737,58.161C118.943,54.782 115.389,52.48 111.297,52.48L92.932,52.48L146.609,145.481L155.07,130.828C156.738,128.019 157.195,126.777 157.195,124.361Z" style="fill:rgb(48,172,227);fill-rule:nonzero;"/>
            <path d="M108.146,109.101L84.155,67.548L60.164,109.101L108.146,109.101Z" style="fill:rgb(48,172,227);fill-rule:nonzero;"/>
        </g>
    </g>
</svg>
